<svg width="211" height="37" viewBox="0 0 211 37" fill="none" xmlns="http://www.w3.org/2000/svg">
<g clip-path="url(#clip0_3079_4634)">
<path d="M61.9457 11.5578V23.9454C61.9457 28.1732 59.3548 29.9271 54.7216 29.9271H50.3436L50.0426 28.1239H54.7254C58.0212 28.1239 59.8844 26.9988 59.8844 23.9454V22.5438C58.4251 24.2712 56.4628 24.8963 53.9938 24.8963C50.0426 24.8963 48.1299 22.5703 48.1299 18.1153C48.1299 13.6603 50.3932 11.41 54.7254 11.41C56.7372 11.41 58.5013 11.7586 60.1625 12.4101L60.715 11.5578H61.9495H61.9457ZM59.8844 20.2632V14.0808C58.3489 13.4784 56.6876 13.2057 55.1026 13.2057C51.8296 13.2057 50.2446 14.9559 50.2446 18.1115C50.2446 21.2671 51.4524 23.0666 54.573 23.0666C56.9391 23.0666 58.7261 22.1915 59.8844 20.2632Z" fill="#181A29"/>
<path d="M78.9126 19.3124H67.5124C67.7906 22.29 69.5776 23.6159 72.6715 23.6159H77.8305L77.5523 25.4191H72.6715C67.9887 25.4191 65.3711 23.1916 65.3711 18.5358C65.3711 13.88 67.8134 11.4025 72.2676 11.4025C76.7217 11.4025 78.9126 13.3534 78.9126 18.21V19.3124ZM76.8208 17.638C76.8208 14.4596 75.2357 13.183 72.2638 13.183C69.2918 13.183 67.7334 14.4823 67.5086 17.638H76.8208Z" fill="#181A29"/>
<path d="M81.0996 23.6424H88.7772C90.5909 23.6424 91.5206 22.9681 91.5206 21.6384C91.5206 20.3087 90.7166 19.7102 88.8039 19.3882L85.4814 18.8616C82.8142 18.46 81.3549 17.3084 81.3549 15.0847C81.3549 12.861 82.8409 11.6563 85.8357 11.6563H92.5036L92.7551 13.433H85.7824C84.0449 13.433 83.3667 14.0088 83.3667 15.0847C83.3667 16.2363 84.1478 16.8121 85.8586 17.0887L89.2802 17.6152C92.1988 18.066 93.6085 19.2177 93.6085 21.6194C93.6085 24.0212 91.8978 25.4229 88.8001 25.4229H81.374L81.0958 23.6462L81.0996 23.6424Z" fill="#181A29"/>
<path d="M106.144 23.7409L105.866 25.5176H102.772C98.8704 25.5176 97.2092 24.1159 97.2092 20.286V13.4557H95.1707L95.4489 11.6525H97.2854L97.7617 7.8983H99.2705V11.6525H105.336V13.4557H99.2705V20.3617C99.2705 22.9643 100.452 23.7409 102.944 23.7409H106.14H106.144Z" fill="#181A29"/>
<path d="M107.302 18.5396C107.302 13.8118 109.871 11.4062 114.729 11.4062C119.587 11.4062 122.101 13.8345 122.101 18.5396C122.101 23.2446 119.533 25.6729 114.729 25.6729C109.924 25.6729 107.302 23.2711 107.302 18.5396ZM119.987 18.5396C119.987 14.9597 118.2 13.236 114.725 13.236C111.25 13.236 109.413 14.9634 109.413 18.5396C109.413 22.1157 111.2 23.8432 114.725 23.8432C118.249 23.8432 119.987 22.1157 119.987 18.5396Z" fill="#181A29"/>
<path d="M134.987 13.3837H132.545C130.179 13.3837 128.67 14.3838 127.588 16.4371V25.4191H125.523V11.6563H127.26L127.538 14.1073C128.849 12.2813 130.533 11.5313 132.873 11.5313H134.709L134.987 13.3837Z" fill="#181A29"/>
<path d="M136.146 18.5396C136.146 13.8118 138.687 11.4062 143.846 11.4062C149.005 11.4062 151.524 13.808 151.524 18.5396C151.524 23.2711 148.982 25.6729 143.846 25.6729C138.71 25.6729 136.146 23.2711 136.146 18.5396ZM147.622 18.5396C147.622 15.937 146.49 14.7361 143.846 14.7361C141.202 14.7361 140.047 15.937 140.047 18.5396C140.047 21.1421 141.206 22.343 143.846 22.343C146.487 22.343 147.622 21.1421 147.622 18.5396Z" fill="#181A29"/>
<path d="M168.639 18.5888C168.639 23.2673 166.502 25.6691 160.813 25.6691C158.272 25.6691 156.005 25.1691 153.966 24.169V6.40193H157.792V13.3837C159.102 12.0086 160.687 11.4062 162.726 11.4062C166.525 11.4062 168.639 13.933 168.639 18.5888ZM164.738 18.6116C164.738 16.1075 163.88 14.7816 161.415 14.7816C159.704 14.7816 158.595 15.9067 157.792 17.1341V21.8884C158.874 22.165 160.005 22.3127 161.038 22.3619C163.655 22.3619 164.738 21.1876 164.738 18.6078V18.6116Z" fill="#181A29"/>
<path d="M181.628 14.8612H179.087C176.949 14.8612 175.814 15.9636 175.01 17.3122V25.4191H171.184V11.6563H174.354L174.884 13.683C176.119 12.1563 177.551 11.5313 179.567 11.5313H181.129L181.632 14.8612H181.628Z" fill="#181A29"/>
<path d="M195.695 17.3614V25.4191H192.525L192.022 23.4416C190.841 24.794 189.203 25.6691 186.509 25.6691C183.339 25.6691 181.929 24.3925 181.929 21.6649C181.929 18.9373 183.564 17.9865 186.81 17.638L191.87 17.0887V16.9371C191.87 15.3839 191.039 14.8612 189.302 14.8612H183.16L183.663 11.6563H189.5C193.905 11.6563 195.692 13.3572 195.692 17.3614H195.695ZM191.87 20.5663V19.5889L187.945 20.089C186.36 20.2898 185.831 20.6383 185.831 21.4414C185.831 22.343 186.208 22.8165 187.591 22.8165C189.378 22.8165 190.815 22.0665 191.87 20.5663Z" fill="#181A29"/>
<path d="M198.039 22.2407H206.17C206.951 22.2407 207.48 21.9415 207.48 21.2899C207.48 20.589 207 20.339 205.945 20.214L202.649 19.7897C199.879 19.4412 198.244 18.1873 198.244 15.6112C198.244 13.0352 200.031 11.6563 203.304 11.6563H209.923L210.327 14.8346H203.179C202.348 14.8346 201.921 15.0847 201.921 15.634C201.921 16.2325 202.325 16.5091 203.304 16.6341L206.905 17.0849C209.747 17.4334 211.283 18.585 211.283 21.2141C211.283 23.8432 209.496 25.4191 206.223 25.4191H198.469L198.043 22.2407H198.039Z" fill="#181A29"/>
<path d="M21.6642 26.4874C21.3632 26.4874 21.1231 26.2449 21.1231 25.9494V19.498L14.0895 26.4911H6.39669L17.2786 15.6756H10.7899C10.4889 15.6756 10.245 15.4332 10.245 15.1339V10.8077L10.2107 0.242172C4.60209 0.484622 0.125092 5.0798 0.125092 10.7168V35.1625C0.125092 35.9164 0.738534 36.5263 1.49677 36.5263H26.084C31.7536 36.5263 36.3792 32.0789 36.6193 26.4987L21.6642 26.4911V26.4874Z" fill="url(#paint0_linear_3079_4634)"/>
<path d="M10.7861 10.2622H25.2077C25.7373 10.2622 25.924 10.444 26.1793 10.6751L36.2573 0.655096C36.0096 0.393705 35.6629 0.22702 35.2743 0.22702C35.2743 0.22702 10.3593 0.23081 10.2069 0.238386L10.2412 10.8039C10.2412 10.5046 10.4851 10.2622 10.7861 10.2622Z" fill="url(#paint1_linear_3079_4634)"/>
<path d="M36.2611 0.651311L26.1831 10.6713C26.2364 10.7281 26.5641 11.0236 26.5641 11.6032V25.9456C26.5641 26.4419 26.1907 26.4836 26.0231 26.4836L36.6231 26.4912C36.6269 26.3737 36.6307 26.2563 36.6345 26.1351C36.6345 26.101 36.6345 1.56429 36.6345 1.56429C36.6345 1.20819 36.4935 0.886183 36.2649 0.647522L36.2611 0.651311Z" fill="url(#paint2_linear_3079_4634)"/>
</g>
<defs>
<linearGradient id="paint0_linear_3079_4634" x1="0.582317" y1="36.0679" x2="35.4263" y2="1.02221" gradientUnits="userSpaceOnUse">
<stop offset="0.25" stop-color="#E30042"/>
<stop offset="0.47" stop-color="#90172F"/>
<stop offset="0.78" stop-color="#5A1020"/>
</linearGradient>
<linearGradient id="paint1_linear_3079_4634" x1="10.3631" y1="23.3658" x2="29.5643" y2="-11.2208" gradientUnits="userSpaceOnUse">
<stop offset="0.25" stop-color="#5A1020"/>
<stop offset="0.41" stop-color="#90172F"/>
<stop offset="0.59" stop-color="#E30042"/>
</linearGradient>
<linearGradient id="paint2_linear_3079_4634" x1="20.3992" y1="30.5219" x2="50.6026" y2="-2.63255" gradientUnits="userSpaceOnUse">
<stop offset="0.31" stop-color="#E30042"/>
<stop offset="0.64" stop-color="#90172F"/>
<stop offset="0.79" stop-color="#5A1020"/>
</linearGradient>
<clipPath id="clip0_3079_4634">
<rect width="211" height="37" fill="white"/>
</clipPath>
</defs>
</svg>
