<?xml version="1.0" encoding="UTF-8"?> <svg xmlns="http://www.w3.org/2000/svg" width="131" height="44" viewBox="0 0 131 44" fill="none"><path d="M46.9438 25.0203H54.4328C55.1512 25.0203 55.6377 24.7411 55.6377 24.1321C55.6377 23.4773 55.1966 23.2439 54.2236 23.1271L51.1862 22.7313C48.6352 22.4039 47.1279 21.2366 47.1279 18.8334C47.1279 16.4302 48.7739 15.1436 51.7886 15.1436H57.8862L58.2567 18.1076H51.6702C50.9039 18.1076 50.5106 18.341 50.5106 18.8537C50.5106 19.4145 50.8812 19.6708 51.7861 19.7875L55.1033 20.2088C57.7249 20.5362 59.139 21.6096 59.139 24.061C59.139 26.5124 57.493 27.9843 54.4782 27.9843H47.3371L46.9438 25.0203Z" fill="#181A29"></path><path d="M60.8354 11.6898C60.8354 10.4996 61.5312 9.77637 63.0159 9.77637C64.5005 9.77637 65.1963 10.4996 65.1963 11.6898C65.1963 12.88 64.5005 13.6286 63.0159 13.6286C61.5312 13.6286 60.8354 12.9053 60.8354 11.6898ZM61.2539 15.1461H64.7778V27.9869H61.2539V15.1461Z" fill="#181A29"></path><path d="M80.0835 22.8962H70.83C71.2006 24.3198 72.292 24.9974 74.1221 24.9974H79.224L78.7602 27.9868H74.1221C69.484 27.9868 67.0944 25.8145 67.0944 21.5664C67.0944 17.3183 69.3907 14.9126 73.6809 14.9126C78.2258 14.9126 80.081 16.7575 80.081 21.0767V22.8987L80.0835 22.8962ZM76.5596 20.1656C76.5596 18.4857 75.6773 17.8766 73.6835 17.8766C71.8282 17.8766 71.0166 18.506 70.762 20.1656H76.5596Z" fill="#181A29"></path><path d="M95.2278 19.9549V27.9867H91.7039V20.3533C91.7039 18.719 91.1241 18.0897 89.3848 18.0897C87.7615 18.0897 86.6473 18.9525 85.9063 20.0513V27.9892H82.3823V15.1485H85.3038L85.7223 16.7371C86.8818 15.382 88.2959 14.915 90.1965 14.915C93.2566 14.915 95.2278 16.2702 95.2278 19.9574V19.9549Z" fill="#181A29"></path><path d="M110.879 14.9127V26.4465C110.879 30.2277 108.537 32.1893 103.783 32.1893H99.6315L99.1677 29.1999H103.783C106.263 29.1999 107.355 28.266 107.355 26.444V25.7436C106.057 26.8399 104.433 27.1444 102.717 27.1444C99.2156 27.1444 97.4536 24.9721 97.4536 20.9803C97.4536 16.9885 99.5181 14.9102 103.203 14.9102C105.104 14.9102 106.637 15.2375 107.98 15.7983L108.862 14.9102H110.879V14.9127ZM107.355 22.5004V18.5543C106.382 18.1584 105.361 17.9706 104.015 17.9706C102.044 17.9706 101.046 19.0669 101.046 20.9829C101.046 22.8988 101.648 24.089 103.922 24.089C105.268 24.089 106.543 23.4825 107.355 22.5004Z" fill="#181A29"></path><path d="M126.162 22.8962H116.908C117.279 24.3198 118.37 24.9974 120.2 24.9974H125.302L124.839 27.9868H120.2C115.562 27.9868 113.173 25.8145 113.173 21.5664C113.173 17.3183 115.469 14.9126 119.759 14.9126C124.304 14.9126 126.159 16.7575 126.159 21.0767V22.8987L126.162 22.8962ZM122.638 20.1656C122.638 18.4857 121.756 17.8766 119.762 17.8766C117.907 17.8766 117.095 18.506 116.84 20.1656H122.638Z" fill="#181A29"></path><path d="M37.9526 4.43701H16.2367C9.97281 4.43701 4.89612 9.54793 4.89612 15.8541C4.89612 22.1603 9.97281 27.2712 16.2367 27.2712V16.9377C16.2367 16.3388 16.7182 15.8541 17.3131 15.8541H28.5478C34.2799 15.8541 38.9281 11.1721 38.9205 5.3988C38.9205 4.86588 38.4819 4.43701 37.9526 4.43701Z" fill="url(#paint0_linear_133_167)"></path><path d="M16.2367 4.43701V27.2712C9.97785 27.2712 4.89612 22.1552 4.89612 15.8541C4.89612 9.553 9.97785 4.43701 16.2367 4.43701Z" fill="url(#paint1_linear_133_167)"></path><path d="M5.86403 38.6906H27.5773C33.8413 38.6906 38.918 33.5797 38.918 27.2735C38.918 20.9674 33.8413 15.8564 27.5773 15.8564V26.1899C27.5773 26.7888 27.0959 27.2735 26.501 27.2735H15.2662C9.53417 27.2735 4.886 31.9556 4.89356 37.7288C4.89356 38.2617 5.33217 38.6906 5.86151 38.6906H5.86403Z" fill="url(#paint2_linear_133_167)"></path><path d="M27.5773 38.6909L27.5773 15.8568C33.8362 15.8568 38.918 20.9727 38.918 27.2738C38.918 33.5749 33.8362 38.6909 27.5773 38.6909Z" fill="url(#paint3_linear_133_167)"></path><defs><linearGradient id="paint0_linear_133_167" x1="4.89612" y1="15.8541" x2="38.9205" y2="15.8541" gradientUnits="userSpaceOnUse"><stop offset="0.33" stop-color="#B50000"></stop><stop offset="1" stop-color="#FF0015"></stop></linearGradient><linearGradient id="paint1_linear_133_167" x1="10.5677" y1="27.2737" x2="10.5677" y2="4.43701" gradientUnits="userSpaceOnUse"><stop stop-color="#B50000"></stop><stop offset="1" stop-color="#FF0015"></stop></linearGradient><linearGradient id="paint2_linear_133_167" x1="38.9205" y1="27.271" x2="4.89609" y2="27.271" gradientUnits="userSpaceOnUse"><stop offset="0.33" stop-color="#B50000"></stop><stop offset="1" stop-color="#FF0015"></stop></linearGradient><linearGradient id="paint3_linear_133_167" x1="33.2489" y1="15.8542" x2="33.2489" y2="38.6909" gradientUnits="userSpaceOnUse"><stop stop-color="#B50000"></stop><stop offset="1" stop-color="#FF0015"></stop></linearGradient></defs></svg> 